<mxfile host="65bd71144e">
    <diagram id="JiPeBnl8MNzj9gC05diy" name="Page-1">
        <mxGraphModel dx="1006" dy="186" grid="1" gridSize="4" guides="1" tooltips="1" connect="1" arrows="1" fold="1" page="1" pageScale="1" pageWidth="827" pageHeight="1169" math="0" shadow="0">
            <root>
                <mxCell id="0"/>
                <mxCell id="1" parent="0"/>
                <mxCell id="2" value="" style="ellipse;whiteSpace=wrap;html=1;aspect=fixed;strokeWidth=10;" parent="1" vertex="1">
                    <mxGeometry x="-432" y="320" width="64" height="64" as="geometry"/>
                </mxCell>
                <mxCell id="3" value="" style="endArrow=none;html=1;" parent="1" edge="1">
                    <mxGeometry width="50" height="50" relative="1" as="geometry">
                        <mxPoint x="-400" y="352" as="sourcePoint"/>
                        <mxPoint x="-400.00000000000006" y="336" as="targetPoint"/>
                    </mxGeometry>
                </mxCell>
                <mxCell id="4" value="" style="endArrow=none;html=1;" parent="1" edge="1">
                    <mxGeometry width="50" height="50" relative="1" as="geometry">
                        <mxPoint x="-408" y="344" as="sourcePoint"/>
                        <mxPoint x="-392" y="344" as="targetPoint"/>
                    </mxGeometry>
                </mxCell>
                <mxCell id="6" value="" style="endArrow=none;html=1;" parent="1" edge="1">
                    <mxGeometry width="50" height="50" relative="1" as="geometry">
                        <mxPoint x="-408" y="360" as="sourcePoint"/>
                        <mxPoint x="-392" y="360" as="targetPoint"/>
                    </mxGeometry>
                </mxCell>
                <mxCell id="9" value="" style="endArrow=none;html=1;strokeWidth=10;" parent="1" edge="1">
                    <mxGeometry width="50" height="50" relative="1" as="geometry">
                        <mxPoint x="-400" y="320" as="sourcePoint"/>
                        <mxPoint x="-400" y="288" as="targetPoint"/>
                    </mxGeometry>
                </mxCell>
                <mxCell id="10" value="" style="endArrow=none;html=1;strokeWidth=10;" parent="1" edge="1">
                    <mxGeometry width="50" height="50" relative="1" as="geometry">
                        <mxPoint x="-400.11" y="399.9999999999999" as="sourcePoint"/>
                        <mxPoint x="-400.11" y="384.0000000000001" as="targetPoint"/>
                    </mxGeometry>
                </mxCell>
                <mxCell id="11" value="" style="endArrow=none;html=1;strokeWidth=10;" parent="1" edge="1">
                    <mxGeometry width="50" height="50" relative="1" as="geometry">
                        <mxPoint x="-400" y="399.9999999999999" as="sourcePoint"/>
                        <mxPoint x="-400" y="399.9999999999999" as="targetPoint"/>
                        <Array as="points">
                            <mxPoint x="-368" y="400"/>
                            <mxPoint x="-400" y="448"/>
                            <mxPoint x="-432" y="400"/>
                        </Array>
                    </mxGeometry>
                </mxCell>
            </root>
        </mxGraphModel>
    </diagram>
</mxfile>